<svg width="46" height="23" viewBox="0 0 46 23" fill="none" xmlns="http://www.w3.org/2000/svg">
<path d="M13.118 5.088V5.368C12.838 5.37733 12.6233 5.41467 12.474 5.48C12.334 5.536 12.2407 5.648 12.194 5.816C12.1473 5.97467 12.124 6.22667 12.124 6.572V13.516C12.124 13.852 12.1473 14.104 12.194 14.272C12.25 14.44 12.348 14.552 12.488 14.608C12.628 14.664 12.838 14.7013 13.118 14.72V15C12.8287 14.9813 12.46 14.972 12.012 14.972C11.564 14.9627 11.1067 14.958 10.64 14.958C10.136 14.958 9.66 14.9627 9.212 14.972C8.77333 14.972 8.41867 14.9813 8.148 15V14.72C8.46533 14.7013 8.70333 14.664 8.862 14.608C9.03 14.552 9.142 14.44 9.198 14.272C9.254 14.104 9.282 13.852 9.282 13.516V6.026L9.422 5.998L5.908 14.986H5.684L1.736 5.998V12.256C1.736 12.8813 1.75933 13.362 1.806 13.698C1.862 14.0247 1.988 14.2627 2.184 14.412C2.38933 14.552 2.71133 14.6547 3.15 14.72V15C2.96333 14.9813 2.72067 14.972 2.422 14.972C2.12333 14.9627 1.84333 14.958 1.582 14.958C1.37667 14.958 1.16667 14.9627 0.952 14.972C0.737333 14.972 0.56 14.9813 0.42 15V14.72C0.709333 14.6547 0.924 14.5567 1.064 14.426C1.204 14.286 1.29733 14.0667 1.344 13.768C1.39067 13.4693 1.414 13.0587 1.414 12.536V6.572C1.414 6.22667 1.39067 5.97467 1.344 5.816C1.29733 5.648 1.19933 5.536 1.05 5.48C0.91 5.41467 0.7 5.37733 0.42 5.368V5.088C0.56 5.09733 0.737333 5.10667 0.952 5.116C1.16667 5.12533 1.37667 5.13 1.582 5.13C2.12333 5.13 2.64133 5.12533 3.136 5.116C3.63067 5.10667 4.07867 5.09733 4.48 5.088L7.252 11.332L6.832 11.794L9.422 5.13C9.60867 5.13 9.80933 5.13 10.024 5.13C10.2387 5.13 10.444 5.13 10.64 5.13C11.1067 5.13 11.564 5.12533 12.012 5.116C12.46 5.10667 12.8287 5.09733 13.118 5.088Z" fill="black"/>
<path d="M22.218 7.088C22.1807 7.55467 22.1527 8.00733 22.134 8.446C22.1247 8.87533 22.12 9.20667 22.12 9.44C22.12 9.636 22.1247 9.82267 22.134 10C22.1433 10.1773 22.1527 10.3267 22.162 10.448H21.84C21.728 9.67333 21.5413 9.06667 21.28 8.628C21.0187 8.18 20.7107 7.86733 20.356 7.69C20.0107 7.50333 19.6467 7.41 19.264 7.41H19.082C18.8393 7.41 18.6573 7.43333 18.536 7.48C18.4147 7.51733 18.3307 7.59667 18.284 7.718C18.2467 7.83933 18.228 8.03067 18.228 8.292V15.796C18.228 16.048 18.2467 16.2393 18.284 16.37C18.3307 16.4913 18.4147 16.5753 18.536 16.622C18.6573 16.6593 18.8393 16.678 19.082 16.678H19.544C19.852 16.678 20.174 16.58 20.51 16.384C20.8553 16.1787 21.1727 15.8333 21.462 15.348C21.7513 14.8627 21.9707 14.2 22.12 13.36H22.442C22.414 13.696 22.4 14.1253 22.4 14.648C22.4 14.8813 22.4047 15.2173 22.414 15.656C22.4233 16.0853 22.4513 16.5333 22.498 17C22.022 16.9813 21.4853 16.972 20.888 16.972C20.2907 16.9627 19.7587 16.958 19.292 16.958C19.04 16.958 18.718 16.958 18.326 16.958C17.9433 16.958 17.5233 16.9627 17.066 16.972C16.618 16.972 16.1607 16.9767 15.694 16.986C15.2367 16.986 14.8027 16.9907 14.392 17V16.72C14.6813 16.7013 14.896 16.664 15.036 16.608C15.176 16.552 15.2693 16.44 15.316 16.272C15.3627 16.104 15.386 15.852 15.386 15.516V8.572C15.386 8.22667 15.3627 7.97467 15.316 7.816C15.2693 7.648 15.1713 7.536 15.022 7.48C14.882 7.41467 14.672 7.37733 14.392 7.368V7.088C14.8027 7.09733 15.2367 7.10667 15.694 7.116C16.1607 7.116 16.618 7.12067 17.066 7.13C17.5233 7.13 17.9433 7.13 18.326 7.13C18.718 7.13 19.04 7.13 19.292 7.13C19.7213 7.13 20.2067 7.13 20.748 7.13C21.2987 7.12067 21.7887 7.10667 22.218 7.088ZM20.188 11.876C20.188 11.876 20.188 11.9227 20.188 12.016C20.188 12.1093 20.188 12.156 20.188 12.156H17.808C17.808 12.156 17.808 12.1093 17.808 12.016C17.808 11.9227 17.808 11.876 17.808 11.876H20.188ZM20.594 10.028C20.5567 10.56 20.538 10.966 20.538 11.246C20.5473 11.526 20.552 11.7827 20.552 12.016C20.552 12.2493 20.5567 12.506 20.566 12.786C20.5753 13.066 20.5987 13.472 20.636 14.004H20.314C20.258 13.6587 20.1413 13.346 19.964 13.066C19.796 12.786 19.5767 12.5667 19.306 12.408C19.0353 12.24 18.7227 12.156 18.368 12.156V11.876C18.6293 11.876 18.8673 11.82 19.082 11.708C19.2967 11.596 19.4833 11.4467 19.642 11.26C19.81 11.0733 19.9453 10.8727 20.048 10.658C20.16 10.4433 20.2347 10.2333 20.272 10.028H20.594Z" fill="black"/>
<path d="M31.912 9.36803V9.64803C31.632 9.70403 31.4173 9.80203 31.268 9.94203C31.128 10.082 31.0347 10.3014 30.988 10.6C30.9413 10.8894 30.918 11.3 30.918 11.832V19.28C30.778 19.2614 30.624 19.252 30.456 19.252C30.2973 19.252 30.1247 19.2614 29.938 19.28L23.736 12.504V16.536C23.736 17.1614 23.7593 17.642 23.806 17.978C23.862 18.3047 23.988 18.5427 24.184 18.692C24.3893 18.832 24.7113 18.9347 25.15 19V19.28C24.9633 19.2614 24.7207 19.252 24.422 19.252C24.1233 19.2427 23.8433 19.238 23.582 19.238C23.3767 19.238 23.1667 19.2427 22.952 19.252C22.7373 19.252 22.56 19.2614 22.42 19.28V19C22.7093 18.9347 22.924 18.8367 23.064 18.706C23.204 18.566 23.2973 18.3467 23.344 18.048C23.3907 17.7494 23.414 17.3387 23.414 16.816V10.852C23.414 10.5067 23.3907 10.2547 23.344 10.096C23.2973 9.92803 23.1993 9.81603 23.05 9.76003C22.91 9.6947 22.7 9.65736 22.42 9.64803V9.36803C22.56 9.37736 22.7373 9.3867 22.952 9.39603C23.1667 9.40536 23.3767 9.41003 23.582 9.41003C23.8153 9.41003 24.044 9.40536 24.268 9.39603C24.492 9.3867 24.6927 9.37736 24.87 9.36803L30.596 15.416V12.112C30.596 11.4867 30.568 11.0107 30.512 10.684C30.4653 10.348 30.344 10.1054 30.148 9.95603C29.952 9.8067 29.63 9.70403 29.182 9.64803V9.36803C29.3687 9.37736 29.6113 9.3867 29.91 9.39603C30.2087 9.40536 30.4887 9.41003 30.75 9.41003C30.9647 9.41003 31.1747 9.40536 31.38 9.39603C31.5947 9.3867 31.772 9.37736 31.912 9.36803Z" fill="black"/>
<path d="M42.534 7.088V7.368C42.254 7.424 42.0393 7.522 41.89 7.662C41.75 7.802 41.6567 8.02133 41.61 8.32C41.5633 8.60933 41.54 9.02 41.54 9.552V12.926C41.54 13.5047 41.498 14.0507 41.414 14.564C41.3393 15.0773 41.19 15.5207 40.966 15.894C40.7233 16.2953 40.3593 16.6127 39.874 16.846C39.398 17.0793 38.7587 17.196 37.956 17.196C37.5267 17.196 37.074 17.1493 36.598 17.056C36.122 16.9627 35.6973 16.7853 35.324 16.524C35.0067 16.2907 34.764 16.006 34.596 15.67C34.428 15.334 34.316 14.942 34.26 14.494C34.204 14.046 34.176 13.5373 34.176 12.968V8.572C34.176 8.22667 34.1527 7.97467 34.106 7.816C34.0593 7.648 33.966 7.536 33.826 7.48C33.686 7.41467 33.4713 7.37733 33.182 7.368V7.088C33.4527 7.09733 33.8073 7.10667 34.246 7.116C34.694 7.12533 35.1607 7.13 35.646 7.13C36.1313 7.13 36.598 7.12533 37.046 7.116C37.494 7.10667 37.8627 7.09733 38.152 7.088V7.368C37.8347 7.37733 37.592 7.41467 37.424 7.48C37.2653 7.536 37.158 7.648 37.102 7.816C37.046 7.97467 37.018 8.22667 37.018 8.572V14.284C37.018 14.7413 37.0553 15.1287 37.13 15.446C37.2047 15.754 37.312 16.0013 37.452 16.188C37.6013 16.3747 37.7833 16.51 37.998 16.594C38.222 16.6687 38.4787 16.706 38.768 16.706C39.3933 16.706 39.8833 16.5567 40.238 16.258C40.5927 15.95 40.8447 15.5253 40.994 14.984C41.1433 14.4333 41.218 13.7987 41.218 13.08V9.832C41.218 9.20667 41.19 8.73067 41.134 8.404C41.0873 8.068 40.966 7.82533 40.77 7.676C40.574 7.52667 40.252 7.424 39.804 7.368V7.088C39.9907 7.09733 40.2333 7.10667 40.532 7.116C40.8307 7.12533 41.1107 7.13 41.372 7.13C41.5867 7.13 41.7967 7.12533 42.002 7.116C42.2167 7.10667 42.394 7.09733 42.534 7.088Z" fill="black"/>
</svg>
